<svg xmlns="http://www.w3.org/2000/svg" viewBox="0 0 42 42">
    <symbol id="file" viewBox="0 0 17 24">
        <path d="M16.5,8c0-0.1,0-0.3-0.1-0.4l-7-7C9.3,0.6,9.1,0.5,9,0.5c0,0-0.1,0-0.1,0H1C0.7,0.5,0.5,0.7,0.5,1v22c0,0.3,0.2,0.5,0.5,0.5 h15c0.3,0,0.5-0.2,0.5-0.5L16.5,8C16.5,8.1,16.5,8,16.5,8z M9.5,2.3l5.2,5.2H9.5V2.3z M1.5,22.5v-21h7V8c0,0.3,0.2,0.5,0.5,0.5h6.5 v14H1.5z"/>
    </symbol>
    <symbol id="instagram" viewBox="0 0 42 42">
        <path d="M25.2,12c2.9,0,5.3,2.2,5.4,5.1l0,0.2v7.4c0,2.8-2.3,5.2-5.2,5.3l-0.2,0H18 c-2.9,0-5.3-2.2-5.4-5.1l0-0.2v-7.4c0-2.8,2.3-5.2,5.2-5.3l0.2,0H25.2z M25.2,13.9H18c-1.8,0-3.4,1.4-3.5,3.2l0,0.2v7.4 c0,1.8,1.4,3.3,3.3,3.4l0.2,0h7.2c1.8,0,3.4-1.4,3.5-3.2l0-0.2v-7.4C28.7,15.4,27.1,13.9,25.2,13.9z M21.4,16l0.2,0l0.1,0 c3.1,0.1,5.1,2.2,5,5c-0.1,2.8-2.3,5-5.1,5c-2.8,0-5.1-2.2-5.1-5c0-2.6,2.1-4.8,4.7-5L21.4,16z M21.5,18.3c-1.4,0-2.7,1.2-2.7,2.7 c0,1.5,1.2,2.7,2.7,2.7c1.5,0,2.7-1.2,2.7-2.7c0-1.5-0.8-2.5-2.6-2.6L21.5,18.3L21.5,18.3z M26.6,15c0.6,0,1,0.4,1,1 c0,0.6-0.4,1-1,1c-0.6,0-1-0.4-1-1C25.6,15.4,26.1,15,26.6,15z"/>
    </symbol>
    <symbol id="twitter" viewBox="0 0 42 42">
        <path d="M30,15.8c-0.7,0.3-1.4,0.5-2.1,0.6c0.8-0.5,1.3-1.2,1.6-2.1c-0.7,0.4-1.5,0.7-2.3,0.9 c-0.7-0.7-1.6-1.2-2.7-1.2c-2,0-3.7,1.7-3.7,3.8c0,0.3,0,0.6,0.1,0.9c-3.1-0.2-5.8-1.7-7.6-4c-0.3,0.6-0.5,1.2-0.5,1.9 c0,1.3,0.7,2.5,1.6,3.2c-0.6,0-1.2-0.2-1.7-0.5v0c0,1.8,1.3,3.4,3,3.7c-0.3,0.1-0.6,0.1-1,0.1c-0.2,0-0.5,0-0.7-0.1 c0.5,1.5,1.8,2.6,3.4,2.6c-1.3,1-2.9,1.6-4.6,1.6c-0.3,0-0.6,0-0.9-0.1c1.6,1.1,3.6,1.7,5.7,1.7c6.8,0,10.5-5.8,10.5-10.8 c0-0.2,0-0.3,0-0.5C28.9,17.2,29.5,16.5,30,15.8"/>
    </symbol>
    <symbol id="linkedin" viewBox="0 0 42 42">
        <path d="M16.6,18.3V29h-3.3V18.3H16.6z M25,18c3.4,0,4,2.2,4,5.1V29h-3.3v-5.2c0-1.2,0-2.8-1.7-2.8 c-1.7,0-2,1.4-2,2.7V29h-3.3V18.3h3.2v1.5h0C22.3,18.9,23.4,18,25,18z M14.9,13c1.1,0,1.9,0.9,1.9,1.9c0,1.1-0.9,1.9-1.9,1.9 c-1.1,0-1.9-0.9-1.9-1.9C13,13.9,13.9,13,14.9,13z"/>
    </symbol>
    <symbol id="youtube" viewBox="0 0 42 42">
    	<path d="M21.1,29l-4.7-0.1c-1.5,0-3.1,0-4.6-0.3c-2.3-0.5-2.4-2.8-2.6-4.7c-0.2-2.7-0.1-5.5,0.3-8.1c0.2-1.5,1.2-2.4,2.7-2.5 c5.1-0.4,10.3-0.3,15.4-0.1c0.5,0,1.1,0.1,1.6,0.2c2.6,0.5,2.7,3.1,2.9,5.2c0.2,2.2,0.1,4.4-0.2,6.6c-0.3,1.8-0.8,3.3-2.9,3.5 C26.3,28.9,23.7,29,21.1,29C21.1,29,21.1,29,21.1,29z M18.3,24.4c2-1.1,3.9-2.3,5.9-3.4c-2-1.1-3.9-2.3-5.9-3.4V24.4z"/>
    </symbol>
    <symbol id="arrow-left" viewBox="0 0 10 16">
        <path d="M9,16c-0.2,0-0.5-0.1-0.7-0.2l-8-7C0.1,8.6,0,8.3,0,8s0.1-0.6,0.3-0.8l8-7c0.4-0.4,1-0.3,1.4,0.1 c0.4,0.4,0.3,1-0.1,1.4L2.5,8l7.1,6.2c0.4,0.4,0.5,1,0.1,1.4C9.6,15.9,9.3,16,9,16z"/>
    </symbol>
    <symbol id="arrow-right" viewBox="0 0 10 16">
        <path class="st0" d="M1-0.1c0.2,0,0.5,0.1,0.7,0.2l8,7C9.9,7.3,10,7.6,10,7.9S9.9,8.5,9.7,8.7l-8,7c-0.4,0.4-1,0.3-1.4-0.1 c-0.4-0.4-0.3-1,0.1-1.4l7.1-6.3L0.4,1.7C0,1.3-0.1,0.7,0.3,0.3C0.4,0,0.7-0.1,1-0.1z"/>
    </symbol>
    <symbol id="play" viewBox="0 0 16 23">
        <path d="M0.5,22.5c-0.1,0-0.2,0-0.2-0.1C0.1,22.4,0,22.2,0,22V1c0-0.2,0.1-0.4,0.3-0.4c0.2-0.1,0.4-0.1,0.5,0l15,10.2 c0.1,0.1,0.2,0.2,0.2,0.4c0,0.2-0.1,0.3-0.2,0.4l-15,10.8C0.7,22.5,0.6,22.5,0.5,22.5z M1,1.9V21l13.6-9.8L1,1.9z"/>
    </symbol>
    <symbol id="cross" viewBox="0 0 26 26">
        <path d="M25.7,0.3c0.4,0.4,0.4,1,0,1.4L14.4,13l11.3,11.3c0.4,0.4,0.4,1,0,1.4s-1,0.4-1.4,0L13,14.4 L1.7,25.7c-0.4,0.4-1,0.4-1.4,0s-0.4-1,0-1.4L11.6,13L0.3,1.7c-0.4-0.4-0.4-1,0-1.4s1-0.4,1.4,0L13,11.6L24.3,0.3 C24.7-0.1,25.3-0.1,25.7,0.3z"/>
    </symbol>
    <symbol id="copy" viewBox="0 0 42 42">
       <path d="M16.1,12c1.8,0,3.3,1.5,3.3,3.3c0,0.3,0,0.5-0.1,0.8l4.2,2.3c0.6-0.6,1.5-1,2.4-1 c1.8,0,3.3,1.5,3.3,3.3c0,1.8-1.5,3.3-3.3,3.3c-0.9,0-1.7-0.3-2.3-0.9l-4.4,2.8c0.1,0.3,0.2,0.6,0.2,1c0,1.8-1.5,3.3-3.3,3.3 s-3.3-1.5-3.3-3.3s1.5-3.3,3.3-3.3c0.9,0,1.7,0.3,2.3,0.9l4.4-2.8c-0.1-0.3-0.2-0.6-0.2-1c0-0.3,0-0.5,0.1-0.8l-4.2-2.3 c-0.6,0.6-1.4,1-2.4,1c-1.8,0-3.3-1.5-3.3-3.3S14.3,12,16.1,12z"/>
    </symbol>
    <symbol id="arrow" viewBox="0 0 20 16">
        <path d="M11.6,15.5c-0.3,0-0.6-0.1-0.8-0.3c-0.4-0.4-0.3-1,0.1-1.4L16.4,9H1C0.4,9,0,8.6,0,8s0.4-1,1-1h15.4L11,2.3 c-0.4-0.4-0.5-1-0.1-1.4c0.4-0.4,1-0.5,1.4-0.1l7.4,6.5c0,0,0,0,0,0c0,0,0,0,0,0s0,0,0,0c0,0,0,0,0.1,0.1C19.9,7.5,20,7.7,20,8 s-0.1,0.5-0.3,0.7c0,0,0,0-0.1,0.1c0,0,0,0,0,0s0,0,0,0c0,0,0,0,0,0l-7.4,6.5C12.1,15.4,11.9,15.5,11.6,15.5z"/>
    </symbol>
    <symbol id="check" viewBox="0 0 20 20">
        <path d="M7.4,20.7c-0.3,0-0.6-0.1-0.8-0.3l-6.1-6c-0.4-0.4-0.4-1.2,0-1.6c0.4-0.4,1.2-0.4,1.6,0L7.4,18L21.9,3.6 c0.4-0.4,1.2-0.4,1.6,0c0.4,0.4,0.4,1.2,0,1.6L8.2,20.4C8,20.6,7.7,20.7,7.4,20.7z"/>
    </symbol>
</svg>
