<?xml version="1.0" encoding="UTF-8"?>
<svg version="1.1" viewBox="0 0 165 75" xmlns="http://www.w3.org/2000/svg" xmlns:xlink="http://www.w3.org/1999/xlink">
<title>Logo/ADLC</title>
<defs>
<polygon id="b" points="0 0 164.98 0 164.98 37.627 0 37.627"/>
<polygon id="a" points="5.659e-15 -3.7819e-15 13.992 -3.7819e-15 13.992 14.163 5.659e-15 14.163"/>
</defs>
<g fill="none" fill-rule="evenodd">
<g transform="translate(-130 -33)">
<g transform="translate(130 33.494)">
<mask id="d" fill="white">
<use xlink:href="#b"/>
</mask>
<path d="m72.986 29.737c0-2.0021-0.95198-3.0753-3-3.0753-1.709 0-3.5395 1.5263-3.9435 1.8832l-0.09887-1.8577-3.5395 0.18973v0.38229l1.5706 0.40778v8.9598l-1.5706 0.37946v0.38229h5.2797v-0.38229l-1.6186-0.37946 0.025424-7.3655c0.30791-0.23787 1.8785-1.263 3.1864-1.263 1.3051 0 1.5932 0.88069 1.5932 2.0502v6.5783l-1.5254 0.37946v0.38229h5.161v-0.38229l-1.5198-0.37946v-6.8898zm-58.963-6.3687c1.0678 0 1.6271 1.3423 1.7175 2.4467h-3.7825c0.29096-1.5575 0.9774-2.4467 2.065-2.4467zm0.36158 6.9096c-1.7373 0-2.8418-1.6113-2.5706-3.8994h5.5028c0-1.903-1.0141-3.5539-3.2938-3.5539-2.2429 0-3.9294 2.1239-3.9294 4.1712 0 2.5401 1.4689 4.1741 3.9294 4.1741 1.7542 0 2.6949-0.70795 3.4379-1.2686l-0.30791-0.45592c-0.37853 0.23504-1.1751 0.83255-2.7684 0.83255zm40.715 6.6576c-2.0226 0-3.1864-2.07-3.1864-4.7886 0-2.7412 1.1638-4.7942 3.1864-4.7942 1.9972 0 3.1638 2.0757 3.1638 4.7942 0 2.7185-1.1667 4.7886-3.1638 4.7886zm0-10.274c-3.0424 0-5.4915 2.4325-5.4915 5.4852 0 3.0244 2.4492 5.4795 5.4915 5.4795 3.0198 0 5.4689-2.4552 5.4689-5.4795 0-3.0527-2.4492-5.4852-5.4689-5.4852zm-10.226 9.798c-2.3305 0-3.404-1.9313-3.404-4.3128 0-2.7922 1.2627-4.7688 2.9492-4.7688 1.2599 0 2.2373 0.69096 2.613 0.92883l0.24011 1.6h0.83051l0.24011-2.6477c-0.5226-0.16708-1.9492-0.59751-3.8983-0.59751-2.9492 0-5.161 2.4325-5.161 5.4852 0 3.3812 1.8785 5.4795 5.3249 5.4795 2.4237 0 3.6864-1.2148 4.2571-1.6679l-0.42373-0.59751c-0.4096 0.28884-1.4266 1.0987-3.5678 1.0987zm-19.229-18.299-2.8249 0.23787v0.27185l1.2119 0.30867v11.426l-1.2119 0.29451v0.28601h4.0198v-0.28601l-1.1949-0.29451v-12.245zm7.065 11.503c-0.45198 0.32566-0.90113 0.63432-1.6808 0.63432-1.0508 0-1.4096-0.60034-1.4096-1.3961 0-0.79857 0.56215-1.4527 2.0056-1.634l1.0847-0.087786v2.4835zm1.5791-4.6073c0-1.2347-0.67232-2.2315-2.4802-2.2315-1.4859 0-2.5876 0.52672-3.113 0.81839l0.16384 1.7387h0.77684l0.16384-1.5773c0.17797-0.053804 0.55932-0.25769 1.5198-0.25769 1.3192 0 1.3898 0.98264 1.3898 1.6906v1.3961l-1.6808 0.053804c-2.0621 0.073627-2.9831 1.1979-2.9831 2.3589 0 1.2318 0.81356 2.1239 2.387 2.1239 0.9774 0 1.774-0.54654 2.2994-0.94299l0.10734 0.94299 2.6243-0.18407v-0.28601l-1.1751-0.29451v-5.3493zm47.398 11.404c-2.3277 0-3.3983-1.9313-3.3983-4.3128 0-2.7922 1.2571-4.7688 2.9463-4.7688 1.2599 0 2.2345 0.69096 2.6158 0.92883l0.24011 1.6h0.83051l0.23729-2.6477c-0.5226-0.16708-1.952-0.59751-3.8983-0.59751-2.9492 0-5.1582 2.4325-5.1582 5.4852 0 3.3812 1.8785 5.4795 5.322 5.4795 2.4266 0 3.6864-1.2148 4.2571-1.6679l-0.42655-0.59751c-0.40678 0.28884-1.4294 1.0987-3.5678 1.0987zm67.811 0c-2.3277 0-3.3983-1.9313-3.3983-4.3128 0-2.7922 1.2571-4.7688 2.9492-4.7688 1.2571 0 2.2345 0.69096 2.613 0.92883l0.24011 1.6h0.82768l0.24011-2.6477c-0.51977-0.16708-1.9492-0.59751-3.8983-0.59751-2.9492 0-5.161 2.4325-5.161 5.4852 0 3.3812 1.8785 5.4795 5.3249 5.4795 2.4266 0 3.6893-1.2148 4.2571-1.6679l-0.42655-0.59751c-0.40113 0.28884-1.4266 1.0987-3.5678 1.0987zm10.969-9.0816c1.404 0 2.1412 1.7642 2.2571 3.2169h-4.9689c0.38136-2.0502 1.2825-3.2169 2.7119-3.2169zm4.113 7.9829c-0.5 0.3115-1.548 1.0987-3.6384 1.0987-2.2853 0-3.7373-2.1239-3.3757-5.1256h7.2288c0-2.5005-1.3333-4.6725-4.3277-4.6725-2.9492 0-5.161 2.7893-5.161 5.4852 0 3.3359 1.9266 5.4795 5.161 5.4795 2.3051 0 3.5424-0.92883 4.5141-1.6679l-0.40113-0.59751zm-51.014-5.8845-0.14407-2.8148-3.4689 0.3115v0.35681l1.5706 0.40495v8.8919l-1.5706 0.37946v0.38229h5.9435v-0.4276l-2.2542-0.38229v-6.2923c0.5452-0.90618 1.3757-1.7869 2.3503-1.8095 0.59605 0 0.95198 0.13876 1.3785 0.40212l0.68927-1.5263c-0.64124-0.37946-0.92655-0.69096-1.8305-0.69096-1.0452 0-2.1893 1.7642-2.6638 2.8148zm-9.2203 0-0.14407-2.8148-3.4718 0.3115v0.35681l1.5678 0.40495v8.8919l-1.5678 0.37946v0.38229h5.9435v-0.4276l-2.2599-0.38229v-6.2923c0.54802-0.90618 1.3785-1.7869 2.3531-1.8095 0.59604 0 0.9548 0.13876 1.3785 0.40212l0.69209-1.5263c-0.64124-0.37946-0.92655-0.69096-1.8305-0.69096-1.0452 0-2.1836 1.7642-2.661 2.8148zm-6.7938-2.8148-3.613 0.38229v0.35681l1.4972 0.40495v7.1984c-1.0706 0.59468-2.0678 1.195-2.9944 1.195-1.0254 0-1.7599-0.60034-1.7599-2.0276v-7.5099l-3.6638 0.35964v0.37946l1.548 0.45592v6.7425c0.019774 1.6226 0.71186 3.0272 2.7288 3.0272 1.5028 0 3.1667-1.1667 4.1893-1.9086l0.096045 1.9086 3.565-0.23787v-0.35681l-1.5932-0.40495v-9.9651zm43.246 3.0753c0-2.0021-0.95198-3.0753-2.9972-3.0753-1.709 0-3.5424 1.5263-3.9463 1.8832l-0.09322-1.8577-3.5424 0.18973v0.38229l1.565 0.40778v8.9598l-1.565 0.37946v0.38229h5.2768v-0.38229l-1.6158-0.37946 0.019774-7.3655c0.31356-0.23787 1.8814-1.263 3.1893-1.263 1.3079 0 1.5932 0.88069 1.5932 2.0502v6.5783l-1.5226 0.37946v0.38229h5.1582v-0.38229l-1.5198-0.37946v-6.8898zm-16.935-2.3589c1.4011 0 2.1384 1.7642 2.2571 3.2169h-4.9718c0.38136-2.0502 1.2853-3.2169 2.7147-3.2169zm0.47458 9.0816c-2.2853 0-3.7373-2.1239-3.3785-5.1256h7.2288c0-2.5005-1.3305-4.6725-4.3249-4.6725-2.952 0-5.161 2.7893-5.161 5.4852 0 3.3359 1.9237 5.4795 5.161 5.4795 2.3023 0 3.5395-0.92883 4.5169-1.6679l-0.40678-0.59751c-0.5 0.3115-1.5452 1.0987-3.6356 1.0987zm-118.2-6.87c-0.59605 0.32566-1.2655 0.65415-2.209 0.65415-0.77966 0-2.1695-0.54654-2.1695-3.1376 0-2.7384 1.2994-3.4321 2.2797-3.4463 0.92373 0 1.4633 0.23504 2.0989 0.6145v5.3153zm1.6102-11.429-3.1836 0.23787v0.34265l1.5734 0.3115v4.5139c-0.65254-0.41628-1.4831-0.74193-2.4633-0.74193-1.8418 0-3.6723 1.869-3.6723 4.2987 0 2.5401 1.4831 4.0466 3.6723 4.0466 0.77966 0 1.6695-0.36247 2.4633-0.89202l0.090395 0.87503 2.7316-0.16708v-0.28601l-1.2119-0.29451v-12.245zm74.972-2.6449c-2.0198 0-3.1864-2.0729-3.1864-4.7914 0-2.744 1.1667-4.7886 3.1864-4.7886 1.9972 0 3.1638 2.07 3.1638 4.7886 0 2.7185-1.1667 4.7914-3.1638 4.7914zm0-10.271c-3.0395 0-5.4915 2.4297-5.4915 5.4795 0 3.0272 2.452 5.4824 5.4915 5.4824 3.0226 0 5.4718-2.4552 5.4718-5.4824 0-3.0499-2.4492-5.4795-5.4718-5.4795zm19.121-2.5769c0.69209 0 1.3079-0.61733 1.3079-1.2885 0-0.69096-0.61582-1.3111-1.3079-1.3111-0.66384 0-1.2825 0.62017-1.2825 1.3111 0 0.67114 0.61864 1.2885 1.2825 1.2885zm-5.8701 12.871-2.2571-0.37946v-6.2923c0.5452-0.90618 1.3785-1.7897 2.3503-1.8124 0.59605 0 0.9548 0.14159 1.3814 0.40495l0.68644-1.5235c-0.63842-0.38229-0.92373-0.69096-1.8277-0.69096-1.0452 0-2.1893 1.7614-2.661 2.812l-0.14407-2.812-3.4718 0.30867v0.35681l1.5706 0.40495v8.8919l-1.5706 0.37946v0.38229h5.9435v-0.43043zm8.5565 0.048141-1.5904-0.37946v-9.9623l-3.6893 0.30867v0.35681l1.5734 0.40495v8.8919l-1.5734 0.37946v0.38229h5.2797v-0.38229zm17.997-13.562-0.85876-1.3111-3.3503 2.693 0.50282 0.64565 3.7062-2.0276zm-14.873 11.273c0 2.0247 0.33051 2.9083 2.5424 2.9083 1.048 0 2.1186-0.23787 2.8277-0.45026l-0.070621-0.47574c-0.59322 0-1.2825-0.050972-1.8757-0.14442-1.1667-0.19256-1.3079-0.59751-1.3079-2.0502v-6.7708l2.6864-0.40495v-0.4276h-2.6667l-0.096045-4.3157h-0.59322l-1.4237 4.3157h-2.2825v0.4276l2.2599 0.40495v6.9832zm11.209-7.34c1.404 0 2.1412 1.7642 2.2627 3.2169h-4.9689c0.37853-2.0474 1.2825-3.2169 2.7062-3.2169zm0 10.248c2.3107 0 3.5452-0.926 4.5226-1.6679l-0.40678-0.59468c-0.5 0.30867-1.5424 1.0959-3.6384 1.0959-2.2797 0-3.7316-2.121-3.3729-5.1256h7.226c0-2.5033-1.3305-4.6696-4.3305-4.6696-2.9463 0-5.1582 2.7865-5.1582 5.4795 0 3.3387 1.9294 5.4824 5.1582 5.4824zm-70.907-13.205 2.3757 7.2438h-4.9915l2.6158-7.2438zm-1.9774 12.562-2.3023-0.38229 1.3785-4.1458h5.5395l1.2119 4.1458-1.9463 0.38229v0.40495h5.1808v-0.35681l-0.94915-0.38229-5.0424-15.232h-0.75989l-5.8503 15.232-0.83051 0.38229v0.35681h4.3701v-0.40495zm11.486-2.3844c0.025424 1.6226 0.71469 3.0272 2.7373 3.0272 1.4972 0 3.161-1.1667 4.1836-1.9058l0.09322 1.9058 3.5678-0.23787v-0.35681l-1.5932-0.40495v-9.9623l-3.6158 0.37946v0.35681l1.5 0.40495v7.1984c-1.0706 0.59751-2.0678 1.1922-2.9972 1.1922-1.0198 0-1.7571-0.59468-1.7571-2.0247v-7.5071l-3.6638 0.35681v0.37946l1.5452 0.45309v6.7454zm13.712 0.11894c0 2.0247 0.33333 2.9083 2.5452 2.9083 1.0452 0 2.1158-0.23787 2.8277-0.45026l-0.073446-0.47574c-0.59322 0-1.2825-0.050972-1.8785-0.14442-1.1638-0.19256-1.3079-0.59751-1.3079-2.0502v-6.7708l2.6921-0.40495v-0.4276h-2.6667l-0.09322-4.3157h-0.59605l-1.4266 4.3157h-2.2797v0.4276l2.2571 0.40495v6.9832z" fill="#1D1D1B" mask="url(#d)"/>
<g transform="translate(75.496 59.637)">
<mask id="c" fill="white">
<use xlink:href="#a"/>
</mask>
<path d="m13.438 6.7067c-0.073446-0.10761-0.11864-0.23504-0.15254-0.36247 0.039548 0.28318 0.059322 0.56919 0.059322 0.86087 0 0.16991-0.0084746 0.34265-0.019774 0.50689l0.11017 0.1869c-0.045198 0.053804-0.073446-0.025486-0.12147-0.053804l-0.016949 0.12743c0.053672 0.025486 0.059322 0.09345 0.11299 0.13876 0.056497 0 0.056497 0.070795 0.050848 0.16991-0.033898-0.067963-0.064972-0.0056636-0.090396 0.0028318 0.087571 0.03115 0.10169 0.13876 0.056497 0.26619-0.14689 0.070795 0 0.26902-0.081921 0.42477-0.081921-0.090618-0.13842-0.19539-0.15254-0.29734l-0.29379-0.37946c0.059322 0.059468 0.35311 0.72494 0.35876 0.84388-0.076271 0.11044 0.031074 0.14725-0.031073 0.28884-0.10452 0.2492-0.20904 0.50123-0.32768 0.66831 0.019774 0.14442-0.19774 0.32849-0.20621 0.50123-0.17232 0.19256-0.20339 0.036814-0.41243 0.053804-0.25989 0.3653-0.42938 1.28-0.83898 1.5377l-0.019774-0.13026c-0.0084746 0.11327-0.081921-0.014159-0.13559 0.048141 0.13277 0.0084954-0.011299 0.16141-0.011299 0.25486-0.22034 0.065132-0.36723 0.3115-0.47458 0.50123-0.12712 0.16424-0.40678 0.16141-0.62429 0.25769-0.042373-0.014159-0.44068 0.011327-0.5 0.050972-0.050847 0.17557 0.21186 0.12743 0.076271 0.29168-0.12147 0.079291-1.1723 0.073627-1.322 0.070795-0.44915 0.32566-0.17232 0.44176-0.71751 0.55787l-0.048023-0.084954c-0.5226 0.29734-1.1893 0.067963-1.6497 0.099113l0.067797-0.15009c-0.13559-0.0623-0.33333 0.0056636-0.31638 0.12177-0.13559-0.048141-0.37288 0.019823-0.42938-0.13876-0.13277-0.073627-0.19209 0.016991-0.31356 0-0.24294-0.13026-0.35311-0.15858-0.57627-0.20955l-0.081921-0.014159 0.081921 0.014159c0.031073-0.025486 0.64124-0.22371 0.5904-0.24637-0.12147 0.022654-0.93785-0.03115-0.91808 0.18124-0.21751-0.23787-0.66102-0.25769-0.85028-0.52672-0.0028249 0.056636-0.073446 0.028318-0.12147 0.042477-0.24576-0.11044-0.37006-0.41061-0.59605-0.46158-0.014124-0.050972 0.10734-0.025486 0.025424-0.099113-0.059322-0.025486-0.039548 0.048141-0.12147 0.022654-0.41243-0.18973-0.59605-0.63716-0.84181-0.9345-0.5565-0.44176-0.83333-1.1412-1.161-1.7189-0.17797-0.16141 0.011299-0.5522-0.24859-0.65132 0.019774-0.059468 0.16384-0.303 0.24294-0.28601-0.12429-0.13593-0.29661-0.32283-0.39266-0.55503 0.050847-0.26619-0.084746-0.47858-0.033898-0.75892 0.016949 0.025486 0.49153 0.38229 0.53107 0.38796 0.062147-0.10761-0.4322-1.0336-0.25424-1.0987-0.0084746-0.050972-0.28814 0.44743-0.29661 0.47574 0.016949-0.58335 0.014124-1.2148 0.059322-1.835 0.23729-0.40495 0.30508 0.042477 0.27684-0.31999-0.031073-0.1784 0.22881-0.17274 0.16667-0.28884-0.11864 0.0028318-0.039548-0.076459-0.10452-0.10478 0.15254-0.22938 0.49435-0.34265 0.49718-0.56919 0.0084746-0.24637-0.016949-0.36247-0.084746-0.64282 0.64972-1.2205 1.5706-2.3136 2.822-2.9451 1.2203-0.60601 2.5989-0.97697 3.9774-0.71361 0.31073 0.1869 0.0084746 0.37663 0.37288 0.35114 0.022599-0.079291 0.94915 0.1246 1.0085 0.016991 0.47458 0.19539 0.54802 0.014159 1.0085 0.27469-0.079096-0.025486-0.16102 0.045309-0.067797 0.084954l0.12429-0.022654c0.064972 0.053804 0.15819 0.033982 0.11864-0.036813 1.2966 0.47574 2.0734 1.6679 2.7881 2.6987 0.10452 0.29168 0.35311 0.64848 0.53107 0.93733 0.21469 0.99963 0.34181 2.2116 0.49718 3.1914 0 0-0.4435-0.50406-0.55367-0.87503zm-0.40113-1.3649c0.10169-0.048141 0.19209-0.12743 0.073446-0.31433-0.11864-0.13026-0.23729-0.27469-0.35028-0.43327l0.27684 0.7476zm-1.3729-3.0583c-0.63842 0.045309-0.76836-0.68813-1.3588-0.88636l-0.49718-0.39079 0.39266 0.43043c1.2232 0.99963 2.339 2.1267 3.1525 3.4548-0.17797-0.44459-0.35028-0.88919-0.5226-1.3083 0.019774-0.23787-0.43503-0.28601-0.57345-0.52105-0.039548-0.025486-0.22881-0.42477-0.4096-0.41344-0.016949-0.13593 0.10452-0.23787 0.076271-0.40212l-0.25989 0.036813zm-8.3249-0.35114-0.29379-0.011327c-0.059322-0.13876 0.22599-0.12177 0.056497-0.21805-0.11864 0.1161-0.40113 0.52955-0.54802 0.58052-0.025424 0.10194-0.042373 0.21805-0.056497 0.33415 0.27401-0.23787 0.55367-0.46442 0.84181-0.6853z" fill="#AA0933" mask="url(#c)"/>
</g>
<path d="m118.61 55.275c-0.35593 0.076459 0.090395 0.10761 0.22599 0.16708 0.045197-0.050972-0.18079-0.11327-0.22599-0.16708zm0.9887 0.15575c0.20339 0.039645 0.32768 0.0056636 0.41526-0.033982-0.75424-0.053804 0.21751 0.014159-0.41526 0.033982zm-18.458-7.2126c0.9887-0.022654 2.0565-0.39079 2.952-0.45592 0.15537 0.039645 1.3107 0.16708 1.2119 0.20389 2.0028-0.19256 2.5791 0.25769 4.0508-0.1246l0.73446-0.20389c0.46893 0.065132 0.79661 0.11894 1.161 0.1784 0.38983-0.10761 1.4124 0.090618 1.6441-0.053804 0.21186 0.067963 0.82768 0.082122 0.83616 0.13026 0.9209 0.036814 1.5565-0.10761 2.4266-0.050972l1.2373 0.073627c1.7429 0.1161 1.5537 0.31999 3.4915 0.39079l-19.746-0.087786zm-30.785-0.74193-0.22034 0.096281c1.6017 0.60884-0.62429 0.0056636-0.67514 0.016991l-5.4181 0.23787c0.28249-0.056636 3.2881-0.56919 3.5621-0.61167 0.35876 0.03115 1.5621 0.17274 1.9633 0.16708 0.71469 0.036814 1.2345-0.067963 1.3531-0.096281-0.059322 0.014159-0.23446 0.067963-0.56497 0.18973zm51.605 2.8743 0.070622-2.0672 0.1017-0.52955c-0.35593-0.26336 0.56215 0.60317-1.048-0.59468l-0.084746-0.0028318-0.52542-0.016991-1.4124-0.065132c-1.2881 0.019823-2.9746 0.056636-4.1582 0.0028318-4.9915 0.0084954-8.709-0.20955-13.808-0.13026 0.27119 0.039645-0.16384 0.34831-0.42373 0.3653l-1.0989-0.26619-1.5508 0.30017c-0.38418 0.0056637 0.82768-0.37663 1.1469-0.38513-2.0254-0.0084954-3.8418 0.014159-5.8107-0.014159-0.13277 0.11044-1.0311 0-1.0989 0.1161-0.090396-0.022654-0.0056498-0.028318 0.050847-0.048141-1.3729 0.048141-1.4661 0.053804-2.7147-0.096281-5.3333-0.11327-10.469-0.053804-15.723-0.11052-5.3107-0.0027551-10.531 0.073704-15.977 0.082199-0.83333 0.17274-1.9774 0.087786-2.9689 0.23504l0.064972-0.053804c-0.84181 0.073627-1.0565-0.019823-2.1215-0.090618-0.014124 0.0623-0.41243 0.014159-0.25989 0.11894-0.37006 0.084954-0.66667-0.15009-1.2006-0.10478-0.019774-0.033982 0.014124 0.0623-0.09887 0.03115-1.3785 0.11894 0.26271-0.056636-1.4831-0.16424l-3.6751 0.059468-1.8192 0.016991-0.45198-0.0056637h-0.096045l-0.67514 0.50689-0.0028248 0.084954-0.0028249 0.16424-0.025424 0.62866c0.011299-0.087786 0.30508-0.13309 0.30508 0.022654-0.22599 0.16708 0.15254 0.92883 0.059322 1.2347-0.048023-0.025486-0.35593-0.4899-0.37571-0.56919-0.09887 0.78158 0.033898 1.4414-0.067797 2.1777-0.0084745-0.053804-0.016949-0.10761-0.028248-0.16141-0.0056498 0.067963-0.23729 0.40212-0.21469 0.46158 0.09322 0.71078 0.12712 1.2403 0.24011 1.7189-0.090396-0.11327-0.070622 0.31716-0.11582 0.47008 0.13277 0.25769 0.10734 0.60317 0.070621 0.96565l-0.056497 0.025486 0.41808 0.12177c0.84181-0.10194 1.709-0.3653 2.452-0.41911 0.16102 0.039645 1.3164 0.16708 1.2175 0.20672 2.0028-0.19823 2.5791 0.25486 4.048-0.12743l0.73164-0.20389c0.47175 0.065132 0.80226 0.1161 1.1638 0.1784 0.39266-0.10478 1.4124 0.090618 1.6469-0.053804 0.21186 0.070795 0.82768 0.082122 0.83333 0.12743 0.9209 0.039645 1.5621-0.10478 2.4294-0.048141l1.2401 0.076459c1.7373 0.11044 1.5537 0.31716 3.4887 0.38513l-19.429 0.022654 0.59322 0.58902 0.073446 0.0028318 0.090396 0.0028318 0.18362 0.0028318c0.24011 0.0056636 0.48023-0.0028318 0.66949 0 2.6017-0.0028318 5.4379 0.056636 8.1497-0.025486 1.5311-0.014159 3.2486 0.16991 4.9322 0.090618 0.30791-0.028318 0.062147-0.067963 0.31073-0.087786 0.42373 0.0084954-0.0028248 0.059468 0.16102 0.087786 0.82768-0.079291 1.9153 0.022654 2.9548 0.028318 0.12147-0.033982 0.41243-0.042477 0.31638-0.09345 1.1497 0.14159 2.726-0.03115 3.9068 0.073627-0.41243-0.1784 0.66949-0.29451 1.0791-0.33132 0.23446 0.0084955 0.29096 0.25486 0.22034 0.28601 0.88136-0.016991 1.339-0.019823 2.3927 0.036814 0.4887-0.019823 0.62147-0.11327 1.2062-0.082122 0.36441 0.12177 1.2232 0.0084954 1.7966 0.053804-0.14407-0.10194 1.0198-0.46158 1.5904-0.41344l-0.61017 0.42194c1.8277-0.082122 4.1186-0.17557 6.2599-0.34831l0.49718 0.35398c2.2034-0.090618 4.3729 0.025486 6.5-0.13026 0.57062 0.048141 1.4887 0.07929 2.048 0.082122 0.77684-0.067963 0.4435-0.32283 0.96893-0.43893 0.29379-0.0056636 1.0734 0.32283 1.1836 0.35681 0.97175 0.028318 1.8305-0.12177 2.6102-0.25486l0.10169 0.34265c0.77119-0.067963 1.8898-0.15292 2.7599-0.067963 0.24294-0.0623 0.98305-0.22371 0.59322-0.30867 0.34463-0.014159 0.34746 0.25769 0.69492 0.1869l-0.32768 0.10194c1.952 0.036814 3.6045-0.014159 5.4887-0.059468 0.5452 0.12743-0.49718-0.33982 0.57062-0.26619 0.62994-0.067963 3.8983 0.13876 4.3616-0.016991l0.14972 0.303c0.83898 0.014159 1.9718 0.016991 3.0706 0.0623 0.63842 0.019823 0.64124-0.084954 1.1469-0.11894l0.028248 0.070795c0.51412-0.039645 0.20622-0.19823 0.39266-0.27185l0.70339-0.13026c0.27966 0.019823 1.0028 0.059468 1.3616 0.10194-0.41243 0.036813-1.4096 0.2407-1.6864 0.33982 0.67797 0.03115 1.3672-0.23504 1.7853-0.12177 0.54802 0.028318 0.97458 0.090618 1.0593 0.0084954 0.048022 0.025486 0.32486 0.048141 0.064971 0.082122 0.42373-0.0028319 0.69492-0.0084955 0.95198-0.042477-0.079096-0.0028318-0.19492-0.014159-0.28814-0.011327 0.064972-0.025486 0.15254-0.082122 0.24576-0.14442-0.050848 0.0028318-0.11299 0.0028318-0.20622-0.0028318h0.21186c0.16384-0.11894 0.33051-0.26619 0.33898-0.31433l1.4379 0.045309c-0.67514 0.050972-1.4322 0.37663-1.1356 0.41911l0.92938-0.14442 3.0169 0.014159 0.050848-7.0257c0.11017 1.5575 0.13559 3.3472 0.45763 4.7263 0.081921 1.1837 0.67232 1.6566 0.67232 1.6566-0.062147-1.4357-0.32486-2.9083-0.26271-4.2562z" fill="#90B3D7"/>
</g>
</g>
</g>
</svg>
