<?xml version="1.0" encoding="utf-8"?>
<!-- Generator: Adobe Illustrator 25.2.3, SVG Export Plug-In . SVG Version: 6.00 Build 0)  -->
<svg version="1.1" id="Calque_1" xmlns="http://www.w3.org/2000/svg" xmlns:xlink="http://www.w3.org/1999/xlink" x="0px" y="0px"
	 viewBox="0 0 1180 1147.1" style="enable-background:new 0 0 1180 1147.1;" xml:space="preserve">
<style type="text/css">
	.st0{fill:url(#FORTS_1_);}
	.st1{fill:url(#TEMPS_1_);}
</style>
<g id="UI">
	<g id="Homepage---Desktop" transform="translate(-130.000000, -2902.000000)">
		<g id="Temps-forts" transform="translate(130.000000, 2902.960000)">
			
				<linearGradient id="FORTS_1_" gradientUnits="userSpaceOnUse" x1="79.4236" y1="1215.8823" x2="78.4236" y2="1215.8823" gradientTransform="matrix(6.027222e-14 -984.3199 -227.84 -1.395118e-14 277851.8438 78340.0781)">
				<stop  offset="0" style="stop-color:#F3F2CE"/>
				<stop  offset="1" style="stop-color:#60AAA7"/>
			</linearGradient>
			<path id="FORTS" class="st0" d="M937.2,1098.1h-90.9v-81.9h-39.4v81.9h-52.5v-99.8h-41.3v147.8h224V1098.1z M939.1,870
				c0-21.5-4.9-40.7-14.7-57.6c-9.8-16.9-23.4-30-40.8-39.4s-36.9-14.1-58.4-14.1c-21.5,0-41,4.7-58.4,14.1s-31,22.5-40.8,39.4
				s-14.7,36.1-14.7,57.6c0,21.5,4.9,40.7,14.7,57.6s23.4,30,40.8,39.4s36.9,14.1,58.4,14.1c21.5,0,41-4.7,58.4-14.1
				s31-22.5,40.8-39.4C934.2,910.7,939.1,891.5,939.1,870z M898.4,870c0,12.4-3.1,23.3-9.4,32.6s-15,16.6-26.1,21.8
				c-11.1,5.1-23.7,7.7-37.8,7.7c-14.1,0-26.7-2.6-37.8-7.7s-19.8-12.4-26.1-21.8s-9.4-20.3-9.4-32.6c0-12.2,3.1-22.9,9.4-32.3
				s15-16.6,26.1-21.8s23.7-7.7,37.8-7.7c14.1,0,26.7,2.6,37.8,7.7c11.1,5.1,19.8,12.4,26.1,21.8S898.4,857.8,898.4,870z
				 M937.2,681.8H862v-40.6l75.2-37.4v-53.1l-86.4,44.2c-5.8-11.9-14.1-21.3-25.1-28.2c-11-6.8-23.6-10.2-37.9-10.2
				c-14.9,0-28.1,3.4-39.4,10.2c-11.3,6.8-20,16.5-26.1,29c-6.1,12.5-9.1,26.8-9.1,43v91.2h224V681.8z M822,642.4v39.4h-68.8v-39.4
				c0-11.3,3.1-20.3,9.3-27c6.2-6.7,14.6-10.1,25.3-10.1c10.5,0,18.8,3.4,25,10.1C818.9,622.1,822,631.1,822,642.4z M937.2,423.9
				H754.4v-64.6h-41.3v177.3h41.3v-64.6h182.7V423.9z M939.1,249.2c0-16.6-3.1-31.6-9.3-45c-6.2-13.3-14.7-23.7-25.4-31.2
				c-10.8-7.5-23-11.2-36.6-11.2c-14.1,0-25.3,3.1-33.8,9.4c-8.4,6.3-14.7,14.6-18.9,24.8c-4.2,10.2-7.6,22.8-10.4,37.8
				c-2.8,14.7-5.2,25.6-7.2,32.6c-2,7-4.7,12.5-8,16.3c-3.3,3.8-7.9,5.8-13.9,5.8c-8.3,0-14.7-3.2-19.2-9.6
				c-4.5-6.4-6.7-14.9-6.7-25.6c0-11.5,2.9-20.8,8.8-27.8c5.9-7,13.6-11.1,23.2-12.2v-47c-13.4,0.2-25.5,4.1-36.2,11.7
				c-10.7,7.6-19,17.9-25.1,31c-6.1,13.1-9.1,27.9-9.1,44.3c0,16,2.9,30.3,8.8,43c5.9,12.7,13.9,22.6,24.2,29.8s21.9,10.7,34.9,10.7
				c14.3,0,25.8-3.1,34.4-9.4c8.6-6.3,15.1-14.5,19.5-24.5c4.4-10,7.9-22.4,10.7-37.1c3-14.9,5.5-26,7.5-33.1
				c2-7.1,4.8-12.7,8.3-16.6c3.5-3.9,8.3-5.9,14.2-5.9c8.5,0,15.2,3.6,20,10.7c4.8,7.1,7.2,16.4,7.2,27.7c0,13.7-3.4,24.6-10.1,32.8
				c-6.7,8.2-15.6,12.7-26.7,13.6l-0.6,47c14.3-0.2,27.2-4.3,38.7-12.2c11.5-7.9,20.5-18.8,27-32.8
				C935.8,283,939.1,267.1,939.1,249.2z"/>
			
				<linearGradient id="TEMPS_1_" gradientUnits="userSpaceOnUse" x1="79.4002" y1="1215.8823" x2="78.4002" y2="1215.8823" gradientTransform="matrix(6.379920e-14 -1041.9199 -227.84 -1.395118e-14 277380.5938 82728.6719)">
				<stop  offset="0" style="stop-color:#F4F2CE"/>
				<stop  offset="1" style="stop-color:#5DA8A6"/>
			</linearGradient>
			<path id="TEMPS" class="st1" d="M466,929.3H283.2v-64.6H242v177.3h41.3v-64.6H466V929.3z M466,684.5h-41.3v105.9h-51.8v-83.2
				h-39.4v83.2h-50.2V688H242v150.4h224V684.5z M466,609.9H315.9L466,551.7v-39l-150.1-58.2H466v-45.8H242v61.8l164.5,60.2
				L242,592.6v63h224V609.9z M466,322.2h-75.2V279c0-16-3-30.1-9.1-42.4c-6.1-12.3-14.7-21.8-25.9-28.5
				c-11.2-6.7-24.3-10.1-39.2-10.1c-14.9,0-28.1,3.4-39.4,10.1c-11.3,6.7-20,16.2-26.1,28.5C245,248.9,242,263,242,279v91.2h224
				V322.2z M350.8,283.5v38.7H282v-38.7c0-11.3,3.1-20.3,9.3-26.9c6.2-6.6,14.6-9.9,25.3-9.9c10.5,0,18.8,3.3,25,9.9
				C347.7,263.3,350.8,272.2,350.8,283.5z M467.9,87.4c0-16.6-3.1-31.6-9.3-45c-6.2-13.3-14.7-23.7-25.4-31.2
				C422.4,3.7,410.2,0,396.5,0c-14.1,0-25.3,3.1-33.8,9.4c-8.4,6.3-14.7,14.6-18.9,24.8c-4.2,10.2-7.6,22.8-10.4,37.8
				c-2.8,14.7-5.2,25.6-7.2,32.6c-2,7-4.7,12.5-8,16.3c-3.3,3.8-7.9,5.8-13.9,5.8c-8.3,0-14.7-3.2-19.2-9.6
				c-4.5-6.4-6.7-14.9-6.7-25.6c0-11.5,2.9-20.8,8.8-27.8c5.9-7,13.6-11.1,23.2-12.2v-47c-13.4,0.2-25.5,4.1-36.2,11.7
				c-10.7,7.6-19,17.9-25.1,31c-6.1,13.1-9.1,27.9-9.1,44.3c0,16,2.9,30.3,8.8,43c5.9,12.7,13.9,22.6,24.2,29.8s21.9,10.7,34.9,10.7
				c14.3,0,25.8-3.1,34.4-9.4s15.1-14.5,19.5-24.5s7.9-22.4,10.7-37.1c3-14.9,5.5-26,7.5-33.1s4.8-12.7,8.3-16.6
				c3.5-3.9,8.3-5.9,14.2-5.9c8.5,0,15.2,3.6,20,10.7c4.8,7.1,7.2,16.4,7.2,27.7c0,13.7-3.4,24.6-10.1,32.8
				c-6.7,8.2-15.6,12.7-26.7,13.6l-0.6,47c14.3-0.2,27.2-4.3,38.7-12.2c11.5-7.9,20.5-18.8,27-32.8
				C464.6,121.2,467.9,105.3,467.9,87.4z"/>
		</g>
	</g>
</g>
</svg>
